<svg id="图层_1" data-name="图层 1" xmlns="http://www.w3.org/2000/svg" viewBox="0 0 128 110"><defs><style>.cls-1{fill:none;}</style></defs><title>验证码</title><path class="cls-1" d="M88.59,37.75,58.17,66.53,42.82,50.43A4.66,4.66,0,0,0,36,56.73L54.61,76.12l.89.75a4.59,4.59,0,0,0,5.62-.55L94.89,44.47v.14a4.66,4.66,0,1,0-6.3-6.85Z"/><path d="M112.42,29l-.89-6.22,1,.5a7.81,7.81,0,0,0-6.17-6.85A145.51,145.51,0,0,1,86.4,11.85,74.08,74.08,0,0,1,68.58,1.44a8.15,8.15,0,0,0-9.52,0,46.73,46.73,0,0,1-18,10.35,67,67,0,0,1-19.39,4.8,7.26,7.26,0,0,0-6.1,6.85c-.11,2.4-.16,9.83-.19,19.25V56.22c.35,27.25,32.41,53.48,48.5,53.48s43.58-18.71,48-53.51c.66-12.41.65-21.79.54-27.28ZM94.89,44.61v-.14L61.11,76.33a4.59,4.59,0,0,1-5.62.55l-.89-.75L36,56.73a4.66,4.66,0,0,1,6.85-6.3l15.35,16.1L88.59,37.75a4.66,4.66,0,1,1,6.3,6.85Z"/><polygon points="112.42 29.02 112.42 28.9 112.5 23.3 111.53 22.8 112.42 29.02"/></svg>