<svg id="图层_2" data-name="图层 2" xmlns="http://www.w3.org/2000/svg" viewBox="0 0 1024 1024"><defs><style>.cls-1{fill:none;}</style></defs><title>密码</title><path class="cls-1" d="M147.06,70.66V854.23l1.21-350.6c0-27.08,26.74-55.08,61.47-55.08h63.07L274,266.71c0-108.19,112.55-195.85,251.3-195.85,138.93,0,251.3,87.66,251.3,195.85l-.18,181.84h61.72c34.61,0,64.18,28,64.18,55.08l-1.36,393.45c0,27-26.73,55.08-61.35,55.08H211.09c-33.38,0-61.86-25.89-64-51.92v53.1H903.14V70.66Z"/><path class="cls-1" d="M650.5,259.7c0-54-56-90.95-125.22-90.95s-126.57,37-126.57,90.95V448.55H649.64Z"/><path d="M211.09,952.16h628.5c34.61,0,61.35-28,61.35-55.08l1.36-393.45c0-27.08-29.57-55.08-64.18-55.08H776.4l.18-181.84c0-108.19-112.37-195.85-251.3-195.85C386.54,70.86,274,158.52,274,266.71l-1.17,181.84H209.74c-34.73,0-61.47,28-61.47,55.08l-1.21,350.6v46C149.23,926.27,177.71,952.16,211.09,952.16ZM549.84,691.39v96.47a36.93,36.93,0,1,1-73.86,0V691.39a67.13,67.13,0,1,1,73.86,0ZM398.71,259.7c0-54,57.41-90.95,126.57-90.95s125.22,37,125.22,90.95l-.86,188.84H398.71Z"/></svg>