<svg id="图层_2" data-name="图层 2" xmlns="http://www.w3.org/2000/svg" viewBox="0 0 1024 1024"><title>姓名</title><path d="M509.83,82.77C387.43,82.77,288,180.05,288,300.11s99.36,217.33,221.81,217.33,221.86-97.28,221.86-217.33S632.41,82.77,509.83,82.77Zm0,0C387.43,82.77,288,180.05,288,300.11s99.36,217.33,221.81,217.33,221.86-97.28,221.86-217.33S632.41,82.77,509.83,82.77ZM426.72,589.9c-158.26,0-286.58,125.71-286.58,280.71v18c0,63.42,128.32,63.46,286.58,63.46H611.59c158.22,0,286.49-2.35,286.49-63.46v-18c0-155-128.27-280.71-286.49-280.71Zm0,0"/></svg>