<svg id="图层_2" data-name="图层 2" xmlns="http://www.w3.org/2000/svg" viewBox="0 0 1024 1024"><defs><style>.cls-1{fill:none;}</style></defs><title>验证码</title><path class="cls-1" d="M715.85,378.7,468.25,612.91l-124.91-131a37.89,37.89,0,0,0-55.76,51.3L439.26,691l7.25,6.14a37.36,37.36,0,0,0,45.73-4.46l274.91-259.3v1.12a37.89,37.89,0,1,0-51.3-55.77Z"/><path d="M909.79,307.61,902.58,257l7.89,4a63.57,63.57,0,0,0-50.18-55.76A1184.24,1184.24,0,0,1,698,167.91,602.92,602.92,0,0,1,553,83.15a66.37,66.37,0,0,0-77.51,0,380.27,380.27,0,0,1-146.1,84.2,544.86,544.86,0,0,1-157.81,39A59.11,59.11,0,0,0,122,262.15c-.86,19.55-1.33,80-1.54,156.69V529C123.23,750.73,384.2,964.22,515.1,964.22c131.6,0,354.66-152.24,390.35-435.51,5.39-101,5.28-177.36,4.36-222.05ZM767.15,434.47v-1.12L492.23,692.65a37.36,37.36,0,0,1-45.73,4.46L439.26,691,287.58,533.17a37.89,37.89,0,0,1,55.76-51.3l124.91,131L715.85,378.7a37.89,37.89,0,1,1,51.3,55.77Z"/><polygon points="909.79 307.61 909.8 306.65 910.46 261.04 902.58 256.99 909.79 307.61"/></svg>