<svg id="图层_1" data-name="图层 1" xmlns="http://www.w3.org/2000/svg" viewBox="0 0 128 110"><title>手机号登录</title><path d="M87.94,7.6a3.89,3.89,0,0,1,3.88,3.88V98.19a3.89,3.89,0,0,1-3.88,3.88H40.06a3.89,3.89,0,0,1-3.88-3.88V11.48A3.89,3.89,0,0,1,40.06,7.6H87.94m0-7.76H40.06A11.68,11.68,0,0,0,28.41,11.48V98.19a11.68,11.68,0,0,0,11.65,11.65H87.94A11.68,11.68,0,0,0,99.59,98.19V11.48A11.68,11.68,0,0,0,87.94-.17Zm0,0"/><path d="M92.15,85.7H35.85a7.44,7.44,0,0,0-7.44,7.44v5.63a7.44,7.44,0,0,0,7.44,7.44H92.15a7.44,7.44,0,0,0,7.44-7.44V93.14a7.44,7.44,0,0,0-7.44-7.44ZM63.87,100.9A5.89,5.89,0,1,1,69.76,95a5.91,5.91,0,0,1-5.89,5.89Zm0,0"/></svg>