<svg id="图层_3" data-name="图层 3" xmlns="http://www.w3.org/2000/svg" viewBox="0 0 1024 1024"><title>设备 </title><path d="M809.78,113H594.52a53.22,53.22,0,0,0-53.22,53.22V734.91H495.73V166.22A53.22,53.22,0,0,0,442.5,113H227.24A53.22,53.22,0,0,0,174,166.22V837.78A53.22,53.22,0,0,0,227.24,891H442.5a53.22,53.22,0,0,0,53.22-53.22V806.32H541.3v31.46A53.22,53.22,0,0,0,594.52,891H809.78A53.22,53.22,0,0,0,863,837.78V166.22A53.22,53.22,0,0,0,809.78,113ZM319.38,806.83H245.92V733.38h73.45ZM427.2,295.2H242.55V221.74H427.2ZM686.65,806.83H613.2V733.38h73.45ZM794.48,295.2H609.82V221.74H794.48Z"/></svg>