<svg id="图层_3" data-name="图层 3" xmlns="http://www.w3.org/2000/svg" viewBox="0 0 1024 1024"><title>监控</title><path d="M843.3,195.71a54,54,0,0,0-36.67-14.06h-3.9c-.78,0-9.37.79-22.64.79-22.64,0-65.54-1.57-106.87-11.7-53.08-12.47-114.72-71-132.67-82.71a56.82,56.82,0,0,0-29.65-8.58c-10.13,0-20.27,3.11-29.63,8.58-2.33,1.57-66.3,67.87-128.72,82.71-41.35,10.13-85.82,11.7-107.66,11.7-14.05,0-22.62-.79-23.4-.79h-3.11c-14.06,0-26.54,4.68-36.67,14.06a49.86,49.86,0,0,0-17.15,37.45V362.65c0,477.49,323.75,539.08,337,541.44a56.51,56.51,0,0,0,18.74,0c14-2.35,339.35-64,339.35-541.44V233.16A52.14,52.14,0,0,0,843.3,195.71ZM512.11,544.49,363.62,396l149.91,94.75L660.6,396Z"/></svg>