<svg xmlns="http://www.w3.org/2000/svg" viewBox="0 0 1024 1024"><path d="M251.49 689.57c20.41 31.59 50.09 59.31 86.46 80.24-54.72 122.95-105.2 253.4-105.2 253.4l.1.29s87.95-152.13 133.39-239.25c23.47 10.11 47.36 16.9 70.92 19.86 88 11.27 170.55-25.5 202.75-97.86 15-33.87 5.28-51.83-14.91-82.27a54.69 54.69 0 01-7.64-42.94l53.06-222a71.07 71.07 0 0148.81-51.81c32.92-9.69 65.89-32.07 87.1-51.15-47.28 15.46-124.95 11.06-192-22.33-52.43-26.09-99.73-74.61-132.5-126.54.23 24.43 3.14 61.9 12.5 90a71 71 0 01-8 61c-36 55.52-106.92 165.12-141.77 219.83-53.57 6.18-93.71 1.12-112.37 43C208.16 575 217.62 637 251.49 689.57zm368.26-485.78c41.94 22.16 125.44 54 213.94 19.54 7.42-6.08 13.46-13.2 17.24-21.74a61.72 61.72 0 004.66-30c-4.09-48.59-58-107.09-136.7-142.88S561.13-8.89 522.6 20.24a60.05 60.05 0 00-19.09 23.5 60.83 60.83 0 00-4.66 30.09c-.14 1.64-.22 3.69-.32 5.49 12.74 42.47 61.47 92.94 121.22 124.47z"/></svg>